<svg xmlns="http://www.w3.org/2000/svg" xmlns:xlink="http://www.w3.org/1999/xlink" width="222.733" height="153.537" viewBox="0 0 222.733 153.537">
  <defs>
    <linearGradient id="linear-gradient" x1="0.5" y1="1" x2="0.5" gradientUnits="objectBoundingBox">
      <stop offset="0" stop-color="gray" stop-opacity="0.251"/>
      <stop offset="0.54" stop-color="gray" stop-opacity="0.122"/>
      <stop offset="1" stop-color="gray" stop-opacity="0.102"/>
    </linearGradient>
  </defs>
  <g id="undraw_to_do_list_a49b_blue" transform="translate(0.003 0)">
    <path id="Path_2121" data-name="Path 2121" d="M91.07,59.517c7.557-6.807,19.42-8.193,30.217-7.651C155.2,53.568,185.814,70.1,212.295,88.8c9.586,6.77,19.024,14.072,25.253,23.389,12.669,18.978,8.91,45.27-8.7,60.9-5.993,5.32-13.259,9.4-20.717,13.014-13.261,6.427-27.566,11.585-42.619,13.054-10.733,1.047-21.59.193-32.27-1.265-29.812-4.083-59.074-13.108-83.6-28.557-10.762-6.774-20.9-15.2-25.336-26.161s-1.6-24.846,9.388-31.333c4.544-2.683,9.974-3.894,15.292-5.033,7.828-1.673,15.78-3.325,22.845-6.73,7.3-3.516,15.934-10.317,14.49-18.1C84.766,73.638,83.523,66.3,91.07,59.517Z" transform="translate(-22.3 -51.76)" fill="#006e90" opacity="0.1"/>
    <path id="Path_2122" data-name="Path 2122" d="M279,496.069a4.538,4.538,0,0,1,4.067-.547s-.578,1.23-3.156,1.214Z" transform="translate(-229.519 -409.745)" fill="#006e90"/>
    <path id="Path_2123" data-name="Path 2123" d="M277.359,500a4.537,4.537,0,0,0,1.093,3.958s.9-1.016-.123-3.379Z" transform="translate(-228.126 -413.593)" fill="#006e90"/>
    <path id="Path_2124" data-name="Path 2124" d="M264,481.934s.073-2.026,4.661-1.531a2.179,2.179,0,0,1-1.506,1.982A2.628,2.628,0,0,1,264,481.934Z" transform="translate(-217.41 -397.711)" fill="#006e90"/>
    <path id="Path_2125" data-name="Path 2125" d="M258.955,488.65s-1.906.694-.021,4.908a2.18,2.18,0,0,0,1.421-2.043A2.635,2.635,0,0,0,258.955,488.65Z" transform="translate(-212.649 -404.431)" fill="#006e90"/>
    <path id="Path_2126" data-name="Path 2126" d="M248.528,461.07s-.386-3.316,4.287-3.154c0,0,.445,3-3.433,3.921Z" transform="translate(-204.914 -379.617)" fill="#006e90"/>
    <path id="Path_2127" data-name="Path 2127" d="M231.83,442.879s.5-3.792,5.2-2.849c0,0,.143,3.258-4.4,3.719Z" transform="translate(-191.442 -365.061)" fill="#006e90"/>
    <path id="Path_2128" data-name="Path 2128" d="M219.38,423.445s.929-3.719,5.59-2.789a5.326,5.326,0,0,1-5.257,3.456Z" transform="translate(-181.392 -349.423)" fill="#006e90"/>
    <path id="Path_2129" data-name="Path 2129" d="M207.53,403.809s.9-3.855,5.4-2.876c0,0-1.349,3.676-5.083,3.514Z" transform="translate(-171.826 -333.494)" fill="#006e90"/>
    <path id="Path_2130" data-name="Path 2130" d="M199.66,381.677s.627-4.69,4.819-3.819c0,0-1.045,4.285-4.492,4.484Z" transform="translate(-165.473 -314.909)" fill="#006e90"/>
    <path id="Path_2131" data-name="Path 2131" d="M192.09,360.215s.785-4.732,5.041-3.528c0,0-1.48,4.5-4.723,4.166Z" transform="translate(-159.362 -297.748)" fill="#006e90"/>
    <path id="Path_2132" data-name="Path 2132" d="M187.13,335.1s1.349-4.754,4.611-4.752c0,0-1.378,5.012-4.3,5.683Z" transform="translate(-155.358 -276.646)" fill="#006e90"/>
    <path id="Path_2133" data-name="Path 2133" d="M183.71,311.983s1.452-5.718,4.116-5.382c0,0-.989,4.364-3.988,6.259Z" transform="translate(-152.598 -257.463)" fill="#006e90"/>
    <path id="Path_2134" data-name="Path 2134" d="M181.28,288.978s1.382-4.769,3.988-5.058c0,0-.887,4.675-3.884,6.28Z" transform="translate(-150.636 -239.166)" fill="#006e90"/>
    <path id="Path_2135" data-name="Path 2135" d="M178.76,266.654s1.77-4.79,3.493-4.964c0,0-.669,4.675-3.291,5.731Z" transform="translate(-148.602 -221.222)" fill="#006e90"/>
    <path id="Path_2136" data-name="Path 2136" d="M176.83,242.568s1-5.168,2.71-5.658c0,0-.075,4.2-2.523,6.034Z" transform="translate(-147.044 -201.218)" fill="#006e90"/>
    <path id="Path_2137" data-name="Path 2137" d="M172.4,218.5s1.1-4.129,2.477-4.806c0,0-.093,4.819-2.12,5.783Z" transform="translate(-143.468 -182.475)" fill="#006e90"/>
    <path id="Path_2138" data-name="Path 2138" d="M166.68,190.386l-.53-7.186s2.814,5.332.771,8.449Z" transform="translate(-138.423 -157.862)" fill="#006e90"/>
    <path id="Path_2139" data-name="Path 2139" d="M146.353,160.919s-2.08-5.184-2.543-5.459c0,0,3.817,3.277,3.624,7.668Z" transform="translate(-120.389 -135.47)" fill="#006e90"/>
    <path id="Path_2140" data-name="Path 2140" d="M235.076,474.183s-3.325-.307-3.046,4.362c0,0,3.007.372,3.834-3.53Z" transform="translate(-191.59 -392.749)" fill="#006e90"/>
    <path id="Path_2141" data-name="Path 2141" d="M216.883,454.82s-3.821.133-3.327,4.9c0,0,3.229.451,4.118-4.031Z" transform="translate(-176.654 -377.122)" fill="#006e90"/>
    <path id="Path_2142" data-name="Path 2142" d="M195.84,436.314s-3.532-1.494-5.59,2.789a5.343,5.343,0,0,0,5.922-2.12Z" transform="translate(-157.877 -361.98)" fill="#006e90"/>
    <path id="Path_2143" data-name="Path 2143" d="M183.906,415.468s-3.616-1.6-5.546,2.587c0,0,3.749,1.132,5.864-1.951Z" transform="translate(-148.279 -345.114)" fill="#006e90"/>
    <path id="Path_2144" data-name="Path 2144" d="M174.184,393.122s-3.543-3.134-6.144.274c0,0,3.6,2.552,6.329.447Z" transform="translate(-139.948 -326.256)" fill="#006e90"/>
    <path id="Path_2145" data-name="Path 2145" d="M167.36,369.671s-3.566-3.208-6.14.386c0,0,3.965,2.593,6.29.306Z" transform="translate(-134.443 -307.324)" fill="#006e90"/>
    <path id="Path_2146" data-name="Path 2146" d="M164.253,340.845s-2.809-4.067-5.893-3.019c0,0,2.919,4.31,5.9,4Z" transform="translate(-132.134 -282.542)" fill="#006e90"/>
    <path id="Path_2147" data-name="Path 2147" d="M161.671,316.535s-2.874-5.151-5.361-4.143c0,0,2.078,3.963,5.461,5.022Z" transform="translate(-130.479 -262.045)" fill="#006e90"/>
    <path id="Path_2148" data-name="Path 2148" d="M159.333,294.128s-2.9-4.029-5.453-3.426c0,0,2.4,4.106,5.766,4.613Z" transform="translate(-128.518 -244.591)" fill="#006e90"/>
    <path id="Path_2149" data-name="Path 2149" d="M163.355,267.922s-2.3-4.557-4.035-4.532c0,0,1.2,4.569,3.921,5.317Z" transform="translate(-132.909 -222.594)" fill="#006e90"/>
    <path id="Path_2150" data-name="Path 2150" d="M159.152,246.667s-2.545-4.607-4.322-4.549c0,0,1.365,3.971,4.258,4.966Z" transform="translate(-129.285 -205.422)" fill="#006e90"/>
    <path id="Path_2151" data-name="Path 2151" d="M160.189,222.394s-1.918-3.821-3.4-4.2c0,0,1.066,4.7,3.242,5.243Z" transform="translate(-130.867 -186.107)" fill="#006e90"/>
    <path id="Path_2152" data-name="Path 2152" d="M150.271,195.248l-4.181-5.868s1.24,5.9,4.8,6.994Z" transform="translate(-122.23 -162.851)" fill="#006e90"/>
    <path id="Path_2153" data-name="Path 2153" d="M131.9,171.811s-4.706-2.994-4.9-3.5c0,0,2.506,4.353,6.874,4.97Z" transform="translate(-106.82 -145.842)" fill="#006e90"/>
    <path id="Path_2154" data-name="Path 2154" d="M122.172,158.987s-5.467-4.867-6.812-4.81a8.633,8.633,0,0,1,6.94,4.536Z" transform="translate(-97.423 -134.434)" fill="#006e90"/>
    <path id="Path_2155" data-name="Path 2155" d="M154.386,189.924l-.193.033c-1.288-7.72-2.909-12.249-4.563-12.754l.056-.193C151.436,177.542,153.067,182,154.386,189.924Z" transform="translate(-125.087 -152.865)" fill="#444053"/>
    <path id="Path_2156" data-name="Path 2156" d="M175.4,260.045l-.289.035c-.089-.721-.166-1.461-.226-2.2-.522-6.41-1.178-12.289-1.91-16.688l.16-.214c.734,4.407,1.517,10.46,2.041,16.879C175.231,258.591,175.306,259.326,175.4,260.045Z" transform="translate(-143.928 -204.504)" fill="#444053"/>
    <path id="Path_2157" data-name="Path 2157" d="M207.62,371.88a37.853,37.853,0,0,1-10.762-7.346,42.148,42.148,0,0,1-8.065-10.544,49.211,49.211,0,0,1-5.1-16.919l.308.131a44.677,44.677,0,0,0,13.108,27.04,37.428,37.428,0,0,0,10.65,7.277Z" transform="translate(-152.581 -282.071)" fill="#444053"/>
    <g id="Group_72" data-name="Group 72" transform="translate(42.833 1.159)" opacity="0.7">
      <path id="Path_2158" data-name="Path 2158" d="M320.84,435.358a4.546,4.546,0,0,1,4.048.688s-.92,1-3.375.22Z" transform="translate(-306.126 -362.406)" fill="#006e90"/>
      <path id="Path_2159" data-name="Path 2159" d="M317.031,436.23a4.54,4.54,0,0,0-.133,4.1s1.157-.7.889-3.262Z" transform="translate(-302.579 -363.275)" fill="#006e90"/>
      <path id="Path_2160" data-name="Path 2160" d="M309.75,417.686s.675-1.912,4.906-.075a2.175,2.175,0,0,1-2.028,1.444A2.633,2.633,0,0,1,309.75,417.686Z" transform="translate(-297.174 -347.601)" fill="#006e90"/>
      <path id="Path_2161" data-name="Path 2161" d="M301.772,420.89s-2.024.1-1.48,4.678a2.179,2.179,0,0,0,1.966-1.529A2.631,2.631,0,0,0,301.772,420.89Z" transform="translate(-289.464 -350.892)" fill="#006e90"/>
      <path id="Path_2162" data-name="Path 2162" d="M299.3,394.007s.615-3.277,5.029-1.735c0,0-.465,2.994-4.443,2.722Z" transform="translate(-288.738 -327.457)" fill="#006e90"/>
      <path id="Path_2163" data-name="Path 2163" d="M288.94,371.8s1.6-3.47,5.81-1.172c0,0-.833,3.152-5.311,2.24Z" transform="translate(-280.375 -309.683)" fill="#006e90"/>
      <path id="Path_2164" data-name="Path 2164" d="M282.9,349.991s2-3.277,6.169-1a5.343,5.343,0,0,1-6.047,1.735Z" transform="translate(-275.5 -292.202)" fill="#006e90"/>
      <path id="Path_2165" data-name="Path 2165" d="M277.31,327.626s2-3.408,6.012-1.139c0,0-2.381,3.107-5.9,1.843Z" transform="translate(-270.987 -274.058)" fill="#006e90"/>
      <path id="Path_2166" data-name="Path 2166" d="M275.27,304.112s1.993-4.291,5.741-2.209c0,0-2.273,3.778-5.621,2.944Z" transform="translate(-269.34 -254.382)" fill="#006e90"/>
      <path id="Path_2167" data-name="Path 2167" d="M274.69,281.282s2.157-4.285,5.86-1.868c0,0-2.751,3.855-5.746,2.572Z" transform="translate(-268.872 -236.092)" fill="#006e90"/>
      <path id="Path_2168" data-name="Path 2168" d="M276.16,256.956s2.7-4.137,5.814-3.165c0,0-2.809,4.382-5.8,4.146Z" transform="translate(-270.059 -215.885)" fill="#006e90"/>
      <path id="Path_2169" data-name="Path 2169" d="M278.419,233.28s3.084-5.025,5.531-3.913c0,0-2.244,3.873-5.669,4.788Z" transform="translate(-271.77 -196.159)" fill="#006e90"/>
      <path id="Path_2170" data-name="Path 2170" d="M282.792,210.878s2.741-4.143,5.313-3.643c0,0-2.236,4.2-5.575,4.84Z" transform="translate(-275.201 -178.389)" fill="#006e90"/>
      <path id="Path_2171" data-name="Path 2171" d="M288.107,188.287s3.113-4.048,4.81-3.7c0,0-2.03,4.264-4.846,4.49Z" transform="translate(-279.673 -160.125)" fill="#006e90"/>
      <path id="Path_2172" data-name="Path 2172" d="M292.71,163.825s2.494-4.626,4.272-4.6c0,0-1.322,3.985-4.2,5.012Z" transform="translate(-283.419 -139.671)" fill="#006e90"/>
      <path id="Path_2173" data-name="Path 2173" d="M296.7,139.215s2.284-3.612,3.8-3.855c0,0-1.523,4.576-3.744,4.9Z" transform="translate(-286.639 -120.403)" fill="#006e90"/>
      <path id="Path_2174" data-name="Path 2174" d="M298.147,107.6l1.633-7.021s1.1,5.928-1.779,8.289Z" transform="translate(-287.689 -92.328)" fill="#006e90"/>
      <path id="Path_2175" data-name="Path 2175" d="M294.974,73.406s-.445-5.567-.8-5.976c0,0,2.672,4.256,1.18,8.4Z" transform="translate(-284.597 -65.568)" fill="#006e90"/>
      <path id="Path_2176" data-name="Path 2176" d="M281.084,402.034s-3.084-1.28-4.2,3.262c0,0,2.759,1.249,4.709-2.23Z" transform="translate(-270.64 -335.536)" fill="#006e90"/>
      <path id="Path_2177" data-name="Path 2177" d="M268.906,378.82s-3.688-1.008-4.636,3.693c0,0,2.949,1.392,5.132-2.624Z" transform="translate(-260.461 -316.858)" fill="#006e90"/>
      <path id="Path_2178" data-name="Path 2178" d="M256.469,355.469s-2.926-2.477-6.169,1a5.34,5.34,0,0,0,6.286-.266Z" transform="translate(-249.184 -297.391)" fill="#006e90"/>
      <path id="Path_2179" data-name="Path 2179" d="M251.485,331.77s-2.98-2.6-6.065.819c0,0,3.242,2.2,6.178-.116Z" transform="translate(-245.245 -278.188)" fill="#006e90"/>
      <path id="Path_2180" data-name="Path 2180" d="M250.459,306.384s-2.452-4.048-5.949-1.569c0,0,2.674,3.508,5.91,2.313Z" transform="translate(-244.51 -256.544)" fill="#006e90"/>
      <path id="Path_2181" data-name="Path 2181" d="M250.786,282.043s-2.452-4.123-5.976-1.455c0,0,3.015,3.663,5.912,2.165Z" transform="translate(-244.752 -236.91)" fill="#006e90"/>
      <path id="Path_2182" data-name="Path 2182" d="M258.3,251.251s-1.471-4.717-4.727-4.626c0,0,1.5,4.985,4.443,5.575Z" transform="translate(-251.823 -210.218)" fill="#006e90"/>
      <path id="Path_2183" data-name="Path 2183" d="M263.114,227.053s-1.211-5.773-3.884-5.55c0,0,.806,4.4,3.72,6.421Z" transform="translate(-256.392 -189.936)" fill="#006e90"/>
      <path id="Path_2184" data-name="Path 2184" d="M267.639,204.714s-1.573-4.711-4.189-4.894c0,0,1.074,4.636,4.133,6.12Z" transform="translate(-259.799 -172.437)" fill="#006e90"/>
      <path id="Path_2185" data-name="Path 2185" d="M279.325,180.647s-.844-5.035-2.506-5.527c0,0-.214,4.717,2.163,6.244Z" transform="translate(-270.587 -152.499)" fill="#006e90"/>
      <path id="Path_2186" data-name="Path 2186" d="M281.662,159.109s-1.058-5.157-2.772-5.629c0,0,.121,4.2,2.589,6.007Z" transform="translate(-272.263 -135.03)" fill="#006e90"/>
      <path id="Path_2187" data-name="Path 2187" d="M289.731,136.275s-.694-4.218-1.993-5.025c0,0-.386,4.808,1.542,5.976Z" transform="translate(-279.38 -117.085)" fill="#006e90"/>
      <path id="Path_2188" data-name="Path 2188" d="M288.3,107.327l-2.248-6.847s-.578,6,2.506,8.106Z" transform="translate(-278.008 -92.247)" fill="#006e90"/>
      <path id="Path_2189" data-name="Path 2189" d="M277.908,79.53s-3.611-4.262-3.638-4.8c0,0,1.1,4.9,5.083,6.789Z" transform="translate(-268.533 -71.461)" fill="#006e90"/>
      <path id="Path_2190" data-name="Path 2190" d="M272.444,64.392s-3.772-6.275-5.074-6.622a8.621,8.621,0,0,1,5.266,6.392Z" transform="translate(-262.963 -57.77)" fill="#006e90"/>
      <path id="Path_2191" data-name="Path 2191" d="M293.766,103.549l-.193-.027c1.066-7.751.867-12.559-.563-13.532l.11-.16C294.637,90.865,294.859,95.609,293.766,103.549Z" transform="translate(-283.661 -83.65)" fill="#444053"/>
      <path id="Path_2192" data-name="Path 2192" d="M277.927,176.956l-.287-.052c.131-.715.278-1.444.44-2.167,1.409-6.275,2.533-12.081,3.14-16.5l.218-.158c-.609,4.434-1.664,10.438-3.073,16.723C278.2,175.51,278.056,176.235,277.927,176.956Z" transform="translate(-271.254 -138.743)" fill="#444053"/>
      <path id="Path_2193" data-name="Path 2193" d="M286.961,293.064a37.939,37.939,0,0,1-8.1-10.217,42.115,42.115,0,0,1-4.561-12.466,49.169,49.169,0,0,1,.162-17.671l.254.216a44.662,44.662,0,0,0,4.48,29.719,37.321,37.321,0,0,0,8,10.117Z" transform="translate(-267.975 -215.132)" fill="#444053"/>
    </g>
    <path id="Path_2194" data-name="Path 2194" d="M1006.218,805.826s-8.15-.492-7.188,5.22a1.39,1.39,0,0,0,.723,1.467s.016-.424.837-.279a3.732,3.732,0,0,0,.885.042,1.854,1.854,0,0,0,1.083-.447h0s2.29-.946,3.181-4.69c0,0,.659-.817.634-1.028l-1.376.578a2.463,2.463,0,0,1,.1,1.816s-.044-1.779-.308-1.735c-.054.01-.715.345-.715.345a4.045,4.045,0,0,1,.193,2.984s.231-2.13-.451-2.861l-.964.567a4.275,4.275,0,0,1,.3,3.24s.164-2.234-.509-3.1l-.877.684s.889,1.76.347,2.967c0,0-.071-2.6-.536-2.8a5.044,5.044,0,0,0-.885.964s.607,1.276.231,1.951c0,0-.231-1.735-.422-1.735a5.629,5.629,0,0,0-.844,1.928,4.164,4.164,0,0,1,.659-2.043,2.291,2.291,0,0,0-1.17.605s.12-.812,1.349-.883a5.355,5.355,0,0,1,.8-.923,5.044,5.044,0,0,0-1.984.229,2.214,2.214,0,0,1,2.209-.418l.865-.708a7.169,7.169,0,0,0-2.313.023,2.814,2.814,0,0,1,2.546-.183l.943-.563a8.584,8.584,0,0,0-2.209-.193,3.387,3.387,0,0,1,2.487.039l.675-.3s-1.016-.193-1.313-.231-.312-.114-.312-.114a3.513,3.513,0,0,1,1.9.212A8.627,8.627,0,0,0,1006.218,805.826Z" transform="translate(-810.685 -660.456)" fill="#006e90"/>
    <ellipse id="Ellipse_52" data-name="Ellipse 52" cx="5.768" cy="0.975" rx="5.768" ry="0.975" transform="translate(184.152 151.579)" fill="#006e90" opacity="0.1"/>
    <path id="Path_2195" data-name="Path 2195" d="M1100.61,727.775s-4.594-.276-4.048,2.944a.785.785,0,0,0,.407.827s.01-.239.472-.158a2.051,2.051,0,0,0,.5.025,1.031,1.031,0,0,0,.609-.253h0a3.649,3.649,0,0,0,1.795-2.645s.372-.461.357-.578l-.771.332a1.391,1.391,0,0,1,.056,1.024s-.025-1-.173-.979c-.031,0-.4.193-.4.193a2.3,2.3,0,0,1,.112,1.683s.131-1.2-.254-1.612l-.546.318a2.413,2.413,0,0,1,.172,1.827,3.425,3.425,0,0,0-.287-1.75l-.493.385a2.356,2.356,0,0,1,.193,1.673s-.041-1.465-.3-1.577a3.087,3.087,0,0,0-.5.538s.343.721.131,1.1c0,0-.131-.977-.237-.981a3.236,3.236,0,0,0-.476,1.091,2.357,2.357,0,0,1,.372-1.157,1.3,1.3,0,0,0-.661.341s.068-.457.771-.5a3,3,0,0,1,.451-.521,2.841,2.841,0,0,0-1.118.129,1.259,1.259,0,0,1,1.245-.237l.49-.4a4.031,4.031,0,0,0-1.305.013,1.574,1.574,0,0,1,1.436-.1l.532-.318a4.861,4.861,0,0,0-1.247-.108,1.911,1.911,0,0,1,1.4.023l.385-.172s-.578-.112-.74-.129-.177-.065-.177-.065a1.989,1.989,0,0,1,1.076.12A4.586,4.586,0,0,0,1100.61,727.775Z" transform="translate(-889.443 -597.455)" fill="#006e90"/>
    <ellipse id="Ellipse_53" data-name="Ellipse 53" cx="3.252" cy="0.549" rx="3.252" ry="0.549" transform="translate(204.751 133.823)" fill="#006e90" opacity="0.1"/>
    <path id="Path_2196" data-name="Path 2196" d="M956.347,742.27s-5.548-.335-4.892,3.553a.947.947,0,0,0,.492,1s0-.287.569-.193a2.653,2.653,0,0,0,.6.031,1.269,1.269,0,0,0,.736-.3h0a4.4,4.4,0,0,0,2.167-3.194s.449-.555.43-.7l-.935.4a1.679,1.679,0,0,1,.067,1.238s-.029-1.213-.21-1.184c-.037,0-.486.233-.486.233a2.774,2.774,0,0,1,.135,2.032s.158-1.45-.307-1.947l-.659.386a2.914,2.914,0,0,1,.206,2.207,4.179,4.179,0,0,0-.345-2.12l-.6.465a2.845,2.845,0,0,1,.237,2.02s-.048-1.77-.366-1.9a3.627,3.627,0,0,0-.6.65s.412.869.156,1.328c0,0-.156-1.178-.285-1.184a3.972,3.972,0,0,0-.578,1.317,2.847,2.847,0,0,1,.449-1.392,1.567,1.567,0,0,0-.8.413s.081-.553.925-.6a3.63,3.63,0,0,1,.546-.628,3.433,3.433,0,0,0-1.349.156,1.51,1.51,0,0,1,1.5-.285l.59-.48a4.847,4.847,0,0,0-1.575.015,1.919,1.919,0,0,1,1.735-.125l.642-.385a5.8,5.8,0,0,0-1.506-.131,2.317,2.317,0,0,1,1.693.027l.461-.189s-.69-.135-.893-.156-.212-.077-.212-.077a2.4,2.4,0,0,1,1.3.145A5.8,5.8,0,0,0,956.347,742.27Z" transform="translate(-772.301 -609.154)" fill="#006e90"/>
    <ellipse id="Ellipse_54" data-name="Ellipse 54" cx="3.927" cy="0.663" rx="3.927" ry="0.663" transform="translate(176.299 137.343)" fill="#006e90" opacity="0.1"/>
    <path id="Path_2197" data-name="Path 2197" d="M315.577,405.5l-19.337,7.481L267.976,423.9c-1.066-1.98-2.639-4.688-4.586-7.9-6.693-11.094-17.769-28.349-27.628-43.512-11.111-17.085-20.673-31.512-20.673-31.512l6.922-2.007,56.543-16.4Z" transform="translate(-177.928 -270.366)" opacity="0.1"/>
    <path id="Path_2198" data-name="Path 2198" d="M317.577,398.5l-19.337,7.481L269.976,416.9c-1.066-1.98-2.639-4.688-4.586-7.9-6.693-11.094-17.769-28.349-27.628-43.512-11.111-17.085-20.673-31.512-20.673-31.512l6.922-2.007,56.543-16.4Z" transform="translate(-179.543 -264.715)" fill="#fff"/>
    <path id="Path_2199" data-name="Path 2199" d="M346.564,398.5l-19.337,7.481A145.428,145.428,0,0,1,294.378,409c-6.693-11.094-17.77-28.349-27.628-43.512L253,331.969l56.543-16.4Z" transform="translate(-208.531 -264.715)" opacity="0.1"/>
    <path id="Path_2200" data-name="Path 2200" d="M349.65,359.295s-30.041,17.769-74.891,13.76L239,285.886l17.135-2.944,59.234-10.172,33.609,84.84Z" transform="translate(-197.229 -230.166)" fill="#006e90"/>
    <path id="Path_2201" data-name="Path 2201" d="M420.766,357.61a142.221,142.221,0,0,1-23.491-.667c-8.91-1.045-17.862-3.208-25.553-7.167a77.589,77.589,0,0,1-16.705-11.221c-12.455-11.2-20.164-27.231-27.086-55.612l59.234-10.172Z" transform="translate(-269.016 -230.166)" opacity="0.1"/>
    <path id="Path_2202" data-name="Path 2202" d="M425.971,246.432s-22.153,4.341-44.68,1.667c-8.91-1.051-17.872-3.208-25.553-7.167a77.587,77.587,0,0,1-16.705-11.221c-15.422-13.879-23.558-35.126-31.952-78.054,0,0,36.819,8.885,73.2-10.577C380.276,141.08,392.546,217.661,425.971,246.432Z" transform="translate(-252.186 -123.862)" fill="#fff"/>
    <path id="Path_2203" data-name="Path 2203" d="M515.089,584.731c-8.91-1.051-17.872-3.208-25.553-7.167a77.59,77.59,0,0,1-16.705-11.221c13.126-1.066,15.013-8.243,15.013-8.243C497.574,573.545,515.089,584.731,515.089,584.731Z" transform="translate(-385.984 -460.493)" opacity="0.1"/>
    <path id="Path_2204" data-name="Path 2204" d="M405.85,243.6s19.778,2.257,38.29-8.145l1.268,4.073a98.348,98.348,0,0,1-39.558,8.831Z" transform="translate(-331.916 -200.048)" fill="#006e90" opacity="0.3"/>
    <path id="Path_2205" data-name="Path 2205" d="M405.85,331.056A130.24,130.24,0,0,0,447.4,318.89l.74,1.693s-8.056,10.138-42.292,12.786Z" transform="translate(-331.916 -267.395)" opacity="0.3"/>
    <path id="Path_2206" data-name="Path 2206" d="M417.94,371.744a130.265,130.265,0,0,0,41.551-12.164l.74,1.693s-8.054,10.147-42.292,12.8Z" transform="translate(-341.675 -300.241)" opacity="0.3"/>
    <path id="Path_2207" data-name="Path 2207" d="M429,415.594a130.265,130.265,0,0,0,41.551-12.164l.74,1.693s-8.065,10.142-42.292,12.8Z" transform="translate(-350.603 -335.639)" opacity="0.3"/>
    <path id="Path_2208" data-name="Path 2208" d="M442.13,453.174a130.264,130.264,0,0,0,41.551-12.164l.74,1.693s-8.054,10.144-42.292,12.8Z" transform="translate(-361.202 -365.974)" opacity="0.3"/>
    <path id="Path_2209" data-name="Path 2209" d="M454.23,493.894a130.265,130.265,0,0,0,41.551-12.164l.74,1.693s-8.056,10.143-42.292,12.8Z" transform="translate(-370.97 -398.845)" opacity="0.1"/>
    <rect id="Rectangle_427" data-name="Rectangle 427" width="5.812" height="5.812" transform="translate(118.734 48.089) rotate(-18.8)" fill="#006e90" opacity="0.3"/>
    <rect id="Rectangle_428" data-name="Rectangle 428" width="5.812" height="5.812" transform="translate(121.864 56.274) rotate(-18.8)" fill="#006e90" opacity="0.3"/>
    <rect id="Rectangle_429" data-name="Rectangle 429" width="5.812" height="5.812" transform="translate(126.882 72.023) rotate(-18.8)" fill="#006e90" opacity="0.3"/>
    <rect id="Rectangle_430" data-name="Rectangle 430" width="5.812" height="5.812" transform="translate(129.761 80.476) rotate(-18.8)" fill="#006e90" opacity="0.3"/>
    <rect id="Rectangle_431" data-name="Rectangle 431" width="5.812" height="5.812" transform="translate(124.416 64.777) rotate(-18.8)" fill="#006e90" opacity="0.3"/>
    <path id="Path_2210" data-name="Path 2210" d="M806.211,318.558l-.206-.193c.532-.108,1.033-.156,1.033-.156s-1.826-6.6-4.9-8.808a14.451,14.451,0,0,1-3.688-4.459,67.408,67.408,0,0,0-5.492-8.052l-.555-.7-.239-.3a2.658,2.658,0,0,0,.7-1.571.026.026,0,0,1,0-.012.755.755,0,0,0,0-.093,1.075,1.075,0,0,0-.039-.214l-.021.033c-.26-.756-1.261-1.089-2-1.506-1.735-.977-2.477-3.113-2.847-5.1-.289-1.542-.528-3.277-1.735-4.27-.771-.638-1.82-.848-2.6-1.482a7.59,7.59,0,0,1-1.61-2.352,9.42,9.42,0,0,0-3.133-3.533,5.225,5.225,0,0,0-4.524-.6c-.565.216-1.078.551-1.637.785-1.388.578-2.978.5-4.353,1.112-1.693.752-2.793,2.413-3.8,3.99a18.985,18.985,0,0,0-1.8,3.21v-.125a4.591,4.591,0,0,0-.359,1.669,2.506,2.506,0,0,0,.079.725,2.337,2.337,0,0,0,1.565,1.494,6.514,6.514,0,0,0,.17.727,7.132,7.132,0,0,0,4.607,4.706c.064.023.129.039.193.058a1.531,1.531,0,0,0,.229.424c.615.771,1.849.551,2.651-.01.033-.021.064-.048.094-.071a2.9,2.9,0,0,0,.035.326c.017.093.031.193.05.276a13.324,13.324,0,0,0,2.573,6s.172.258.451.686a8.6,8.6,0,0,0,1.968,5.621c-.977.565-3.084,1.671-4.388,1.579,0,0-4.788.619-5.344.308-.077-.042-.15.015-.22.147-1.319-.8-5.534-3.121-5.895-.147-.326,2.7,3.516,3.044,5.345,3.057-.083.79-.129,1.423-.129,1.423l7.867-.538,4.1-.6a4.928,4.928,0,0,1-1.463,1.394s-3.7,3-4.343,3.025c-.091,0-.12.091-.106.235-1.558,0-6.4.226-5.058,2.924,1.22,2.446,4.655.754,6.209-.181.366.711.679,1.268.679,1.268l6.348-4.52,1.374-1.157a4.892,4.892,0,0,0,1.367-.264.159.159,0,0,0,.019.05,2.613,2.613,0,0,1,.11.436c.385,2.215-.91,7.381-.91,7.381s-2.849,7.266-1.48,8.256.357,5.172.357,5.172a7.73,7.73,0,0,0,.821,1.134h0a3.44,3.44,0,0,0,.48.457,4.451,4.451,0,0,0-.158.53,4.321,4.321,0,0,0,.226,2.668,12.144,12.144,0,0,1,.368,5.59l-1.847,12.476a5.245,5.245,0,0,0-2.458,0c-.653.368-.44,2.225,1.078,3.023a3.9,3.9,0,0,1-1.561.719c-1.349.308-2.3.505-2.922.625-.04,0-3.239-.706-4.06-.239s-.426,3.053,1.91,3.688c2.286.619,10.812,1.527,13.268,1.157l.156-.027c2.088-.413.254-3.156.023-3.489-.015-.112-.029-.229-.044-.357-.033-.285-.062-.613-.083-.964a31.185,31.185,0,0,0,5.681.16.612.612,0,0,0,.139-.025c1.849-.366.229-2.791.021-3.084l-.029-.237v-.021c0-.056-.014-.116-.019-.174a.754.754,0,0,0-.015-.15c-.016-.052,0-.093-.014-.141q-.012-.143-.023-.295v-.125c0-.077-.01-.154-.013-.233v-.129c0-.116,0-.235-.012-.355v-.943c0-.129.012-.262.019-.4l.012-.143c0-.1.015-.193.025-.293a.462.462,0,0,1,.015-.145c.015-.135.033-.27.052-.407a.881.881,0,0,1,.019-.121c.017-.1.035-.206.054-.31a.756.756,0,0,1,.031-.154q.035-.168.075-.335a.4.4,0,0,1,.021-.093c.035-.135.073-.268.114-.4.013-.046.029-.093.044-.139.033-.1.067-.193.1-.3l.046-.123c.052-.131.108-.26.166-.386.015-.033.033-.066.05-.1.048-.1.1-.193.154-.3l.066-.114c.073-.123.148-.247.231-.364,2.12-3.023,2.679-8.852,2.627-10.12s.253-3.9.632-4.289a33.478,33.478,0,0,0,2.62-3.875c.16-.285.3-.553.409-.792.628-.218,1.045-.386,1.045-.386h0a8.938,8.938,0,0,1-.316-2.485,7.532,7.532,0,0,1,2.329-5.556,9.084,9.084,0,0,0,3.169-6.145v-.183C806.22,318.647,806.211,318.558,806.211,318.558Z" transform="translate(-618.764 -231.895)" fill="url(#linear-gradient)"/>
    <path id="Path_2211" data-name="Path 2211" d="M885.1,572.694a33.123,33.123,0,0,1-2.506,3.83c-.362.385-.653,2.99-.6,4.241s-.48,7.019-2.506,10.007-.985,8.152-.985,8.152l-3.233,1.133h-3.884l-2.676-.8L868,597.311s.941-.145,3.277-.7a3.032,3.032,0,0,0,2.419-2.751l1.64-11.456a10.965,10.965,0,0,0-.314-4.892,3.983,3.983,0,0,1,.262-3.489l.052-.081a32.668,32.668,0,0,1,5.11-3.25c2.284-1.1,4.6-1.627,5.259.33A3.4,3.4,0,0,1,885.1,572.694Z" transform="translate(-704.977 -469.863)" fill="#a5636d"/>
    <path id="Path_2212" data-name="Path 2212" d="M885.1,572.694a33.123,33.123,0,0,1-2.506,3.83c-.362.385-.653,2.99-.6,4.241s-.48,7.019-2.506,10.007c-1.427,2.107-1.332,5.292-1.156,6.99.075.711.168,1.157.168,1.157l-3.233,1.133h-3.88l-2.676-.794L868,597.311s.235-.037.771-.141,1.349-.281,2.518-.559a3.032,3.032,0,0,0,2.408-2.751l1.64-11.456a10.965,10.965,0,0,0-.314-4.892,3.983,3.983,0,0,1,.262-3.489l.052-.081a32.668,32.668,0,0,1,5.11-3.25c2.284-1.1,4.6-1.627,5.259.33A3.4,3.4,0,0,1,885.1,572.694Z" transform="translate(-704.977 -469.863)" opacity="0.05"/>
    <path id="Path_2213" data-name="Path 2213" d="M878.5,713.926l-3.233,1.133h-3.884l-2.676-.8L868,712.311s.235-.037.771-.141a1.455,1.455,0,0,0,1.12,1.573l1.519.052c.214,0,.43.011.642.011a19.366,19.366,0,0,0,6.28-1.043C878.41,713.475,878.5,713.926,878.5,713.926Z" transform="translate(-704.977 -584.863)" opacity="0.1"/>
    <path id="Path_2214" data-name="Path 2214" d="M859.032,712.615l-1.521-.052a1.484,1.484,0,0,1-1.072-1.91s-2.737-.621-3.437-.21-.362,2.676,1.615,3.231c1.928.542,9.149,1.338,11.225,1.012l.133-.023c1.882-.386,0-3.084,0-3.084h0A19.446,19.446,0,0,1,859.032,712.615Z" transform="translate(-692.601 -583.355)" fill="#bebed0"/>
    <path id="Path_2215" data-name="Path 2215" d="M852.377,575.56c-.1.2-.212.416-.337.638a35.909,35.909,0,0,1-2.753,4.2c-.409.436-.734,3.373-.682,4.792s-.542,7.919-2.828,11.292a10.807,10.807,0,0,0-1.415,6q.009.966.114,1.928c.085.784.193,1.274.193,1.274l-3.647,1.278h-4.389l-3.021-.9-.79-2.205s.264-.042.858-.16,1.519-.314,2.841-.626a3.427,3.427,0,0,0,2.724-3.1l1.849-12.929a12.407,12.407,0,0,0-.353-5.523,4.434,4.434,0,0,1-.216-2.639,4.209,4.209,0,0,1,.578-1.392s.706-.555,1.77-1.29c.47-.324,1.016-.682,1.6-1.045,2.575-1.594,5.962-3.221,7.585-2.036a2.1,2.1,0,0,1,.748,1.078A2.74,2.74,0,0,1,852.377,575.56Z" transform="translate(-676.579 -472.286)" fill="#a5636d"/>
    <path id="Path_2216" data-name="Path 2216" d="M844.658,735.466l-3.647,1.278h-4.38l-3.021-.9-.79-2.205s.264-.042.858-.16a1.61,1.61,0,0,0,.513,1.425,1.718,1.718,0,0,0,1.087.409l1.382.044c.241,0,.484.014.725.014a21.928,21.928,0,0,0,7.09-1.18C844.56,734.976,844.658,735.466,844.658,735.466Z" transform="translate(-676.579 -602.065)" opacity="0.1"/>
    <path id="Path_2217" data-name="Path 2217" d="M822.639,733.99l-1.38-.046a1.735,1.735,0,0,1-1.089-.409,1.7,1.7,0,0,1-.457-1.76s-3.084-.7-3.88-.237-.407,3.021,1.824,3.647c2.184.611,10.327,1.509,12.671,1.143l.148-.027c2.12-.436,0-3.485,0-3.485h0A21.873,21.873,0,0,1,822.639,733.99Z" transform="translate(-662.56 -600.37)" fill="#bebed0"/>
    <path id="Path_2218" data-name="Path 2218" d="M898.781,572.71a18.468,18.468,0,0,1-4.324,1.1,1.944,1.944,0,0,1-.33-.015h0a37.978,37.978,0,0,0-5.153.251c-.846.075-1.66.154-2.332.224-1,.1-1.693.179-1.693.179v-.653c.47-.324,1.016-.682,1.6-1.045,2.575-1.594,5.962-3.221,7.586-2.036,2.284-1.1,4.6-1.627,5.259.33A3.529,3.529,0,0,1,898.781,572.71Z" transform="translate(-718.66 -469.879)" opacity="0.1"/>
    <path id="Path_2219" data-name="Path 2219" d="M905.053,497.6a9.131,9.131,0,0,1-3.028,6.078c-3.347,3.267-1.928,7.959-1.928,7.959s-3.99,1.567-5.712,1.61a1.932,1.932,0,0,1-.33-.015,61.711,61.711,0,0,0-7.493.474c-1,.1-1.693.179-1.693.179V500.01l18.492-4.49,1.675,1.667A3.08,3.08,0,0,1,905.053,497.6Z" transform="translate(-718.595 -409.976)" fill="#5c5c8e"/>
    <path id="Path_2220" data-name="Path 2220" d="M955.5,576.89" transform="translate(-775.61 -475.661)" fill="none"/>
    <g id="Group_73" data-name="Group 73" transform="translate(166.282 85.549)" opacity="0.1">
      <path id="Path_2221" data-name="Path 2221" d="M885.215,587.811l-.3.033v.147s.69-.075,1.693-.179c1.693-.172,4.278-.412,5.987-.484A67.481,67.481,0,0,0,885.215,587.811Z" transform="translate(-884.91 -569.62)"/>
      <path id="Path_2222" data-name="Path 2222" d="M941.217,497.219l-1.675-1.669-1.116.28,1.4,1.4a3.086,3.086,0,0,1,0,.418,9.134,9.134,0,0,1-3.028,6.078c-3.346,3.266-1.928,7.959-1.928,7.959a31.726,31.726,0,0,1-5.193,1.563,4.76,4.76,0,0,1,.54.029,1.939,1.939,0,0,0,.33.017c1.721-.042,5.712-1.61,5.712-1.61s-1.427-4.694,1.928-7.959a9.133,9.133,0,0,0,3.028-6.078A3.082,3.082,0,0,0,941.217,497.219Z" transform="translate(-921.05 -495.55)"/>
    </g>
    <path id="Path_2223" data-name="Path 2223" d="M772.662,447.748s-5.59-3.879-6-.386,6,2.994,6,2.994Z" transform="translate(-623.158 -369.925)" fill="#a5636d"/>
    <path id="Path_2224" data-name="Path 2224" d="M803.238,442.13s-3.025,2-4.7,1.878c0,0-4.572.613-5.1.307s-.856,4.434-.856,4.434l7.518-.53,4.819-.736s2.41-1.469,2.41-2.735S803.238,442.13,803.238,442.13Z" transform="translate(-644.096 -366.878)" fill="#f7cddd"/>
    <path id="Path_2225" data-name="Path 2225" d="M803.238,442.13s-3.025,2-4.7,1.878c0,0-4.572.613-5.1.307s-.856,4.434-.856,4.434l7.518-.53,4.819-.736s2.41-1.469,2.41-2.735S803.238,442.13,803.238,442.13Z" transform="translate(-644.096 -366.878)" opacity="0.05"/>
    <path id="Path_2226" data-name="Path 2226" d="M801.835,494.463s-6.8-.281-5.276,2.892,6.676-.679,6.676-.679Z" transform="translate(-647.129 -409.118)" fill="#a5636d"/>
    <path id="Path_2227" data-name="Path 2227" d="M840.2,414.755s-5.511-4.123-4.734-9.145,4.734,3.844,4.734,3.844Z" transform="translate(-678.654 -336.155)" fill="#5c5c8e"/>
    <path id="Path_2228" data-name="Path 2228" d="M794.089,312.24a6.974,6.974,0,0,1-1.961,4.84,6.555,6.555,0,0,1-1.006.858,6.876,6.876,0,0,1-3.275,1.232c-.239.023-.48.037-.725.037a6.8,6.8,0,0,1-2.3-.385,6.967,6.967,0,1,1,9.263-6.573Z" transform="translate(-634.066 -256.406)" fill="#a5636d"/>
    <path id="Path_2229" data-name="Path 2229" d="M895.294,497.6c-.625.116-1.4.324-1.4.648,0,.546-8.709,3.485-8.709,3.485s.326.76-.544,2.066-7.948,8.817-7.948,8.817l.023.224.091.865.432,4.137a14.34,14.34,0,0,0-3.593-.871,1.2,1.2,0,0,1-.869-.4,4.208,4.208,0,0,1,.578-1.392s.706-.555,1.77-1.29V500.01l18.492-4.49,1.675,1.667A3.1,3.1,0,0,1,895.294,497.6Z" transform="translate(-708.836 -409.976)" opacity="0.1"/>
    <path id="Path_2230" data-name="Path 2230" d="M860.97,383.393s-2.178.216-2.178.761-8.709,3.485-8.709,3.485.326.759-.544,2.066-7.948,8.819-7.948,8.819l.546,5.224a14.342,14.342,0,0,0-3.593-.871c-.386.048-.819-.31-1.176-.729a7.579,7.579,0,0,1-.785-1.12s.981-4.139-.326-5.118,1.415-8.164,1.415-8.164,1.23-5.108.867-7.3a2.624,2.624,0,0,0-.1-.432.154.154,0,0,0-.015-.048c-.771-2.093-9.13-19.662-9.13-19.662a12.621,12.621,0,0,1,.1-1.49c.017-.137.04-.28.066-.424a7.156,7.156,0,0,1,.17-.771,4.8,4.8,0,0,1,.158-.48c.258-.663.653-1.174,1.243-1.186a3.653,3.653,0,0,1,2.186-.919,9.51,9.51,0,0,1,4.893.919c5.114,2.174,6.313,2.286,6.313,2.286l2.57,3.373.528.692a66.676,66.676,0,0,1,5.245,7.961,14.173,14.173,0,0,0,3.522,4.411C859.227,376.862,860.97,383.393,860.97,383.393Z" transform="translate(-673.73 -296.533)" fill="#f7cddd"/>
    <path id="Path_2231" data-name="Path 2231" d="M894.65,437.05s7.267,1.8,10.084,6.327Z" transform="translate(-726.49 -362.778)" opacity="0.1"/>
    <path id="Path_2232" data-name="Path 2232" d="M906.3,478.34s1.374,9.228.993,9.922S906.3,478.34,906.3,478.34Z" transform="translate(-735.894 -396.108)" opacity="0.1"/>
    <path id="Path_2233" data-name="Path 2233" d="M877.467,493.142c-.528.692-2.674,6.041-2.674,6.041l.619,8.983.546,5.224a14.324,14.324,0,0,0-3.591-.871c-.386.048-.821-.31-1.176-.729.565-3.059,1.773-9.461,1.991-9.584a29.929,29.929,0,0,0,1.835-6.747c.077-1.44,2.12-4.65,2.12-4.65S878,492.45,877.467,493.142Z" transform="translate(-707.553 -406.174)" opacity="0.1"/>
    <path id="Path_2234" data-name="Path 2234" d="M841.591,384.969c-.135.407-.343,2.776-.343,2.776a3.2,3.2,0,0,1-2.708,2.988,2.624,2.624,0,0,0-.1-.432c-.654-1.849-9.145-19.7-9.145-19.7a11.727,11.727,0,0,1,.339-2.687c1.849-.544,4.775.293,4.775.293.846-.112,3.607,5.376,3.607,5.376s1.839,4.2,2.041,4.775a10.136,10.136,0,0,1,.081,1.839c.081.328.941.609,1.062,1.06s.042,1.349.123,1.509A6.68,6.68,0,0,1,841.591,384.969Z" transform="translate(-673.73 -306.818)" opacity="0.1"/>
    <path id="Path_2235" data-name="Path 2235" d="M833.468,383.256c-.135.409-.343,2.776-.343,2.776a3.083,3.083,0,0,1-2.174,2.836,4.558,4.558,0,0,1-1.307.26l-1.313,1.141-6.063,4.463s-2.259-4.177-1.646-4.2,4.148-2.992,4.148-2.992c1.081-.578,2.165-2.506,2.668-3.5a3.063,3.063,0,0,1-.065-.359c-.218-1.849-4.79-8.927-4.79-8.927a13.368,13.368,0,0,1-2.456-5.933c-.019-.089-.033-.179-.05-.272a2.754,2.754,0,0,1-.035-.362c-.083-1.482,1-2.022,2.277-2.149h0a9.141,9.141,0,0,1,2,.062,14.516,14.516,0,0,1,1.96.386c.548-.073,1.9,2.2,2.782,3.817h0c.476.875.819,1.558.819,1.558s1.839,4.2,2.041,4.775a10.13,10.13,0,0,1,.081,1.839c.081.326.941.611,1.062,1.062s.042,1.349.123,1.509A6.7,6.7,0,0,1,833.468,383.256Z" transform="translate(-666.26 -305.433)" fill="#f7cddd"/>
    <path id="Path_2236" data-name="Path 2236" d="M808.264,324.823a4.154,4.154,0,0,1-4.524.578,30.367,30.367,0,0,1-4.16-2.541c-.9-.551-1.858-1-2.747-1.571h0c-.131-.085-.258-.17-.386-.258-1.026-.725-1.914-1.656-2.976-2.313a4.626,4.626,0,0,0-2.39-.771,2.719,2.719,0,0,0-1.139.239,1.547,1.547,0,0,0-.193.094,4.916,4.916,0,0,0-.964.723c-.3.27-.588.557-.9.81-.019-.089-.033-.179-.05-.272a2.764,2.764,0,0,1-.035-.362c-.239.023-.48.037-.725.037a6.8,6.8,0,0,1-2.3-.386.157.157,0,0,0-.017-.087,5.49,5.49,0,0,0-1.835-3.6,12.78,12.78,0,0,0-2.548-.964,6.967,6.967,0,1,1,13.128.754,9.511,9.511,0,0,1,4.893.919c5.114,2.174,6.313,2.286,6.313,2.286l2.57,3.373a2.883,2.883,0,0,0-.621,1.338C806.608,323.76,807.493,324.395,808.264,324.823Z" transform="translate(-634.024 -256.418)" opacity="0.1"/>
    <path id="Path_2237" data-name="Path 2237" d="M776.862,294.244a5.5,5.5,0,0,1,1.837,3.593,2.8,2.8,0,0,0,.42,1.218c.578.759,1.766.546,2.531,0a14.858,14.858,0,0,1,2.223-1.758,3.831,3.831,0,0,1,3.53.526c1.062.665,1.951,1.6,2.976,2.313.993.7,2.1,1.2,3.132,1.829a29.8,29.8,0,0,0,4.16,2.541,4.167,4.167,0,0,0,4.522-.578c-.771-.428-1.656-1.06-1.6-1.978s1.128-1.6,1.056-2.543-1.178-1.309-1.972-1.772c-1.658-.964-2.365-3.084-2.72-5.041-.276-1.531-.5-3.24-1.646-4.224-.738-.632-1.735-.839-2.479-1.465a7.622,7.622,0,0,1-1.542-2.327,9.255,9.255,0,0,0-2.99-3.495,4.794,4.794,0,0,0-4.32-.59c-.54.214-1.031.545-1.563.771-1.326.578-2.843.5-4.156,1.1-1.617.744-2.668,2.386-3.63,3.946-.813,1.336-2.427,3.692-1.97,5.426C773.12,293.5,775.663,293.407,776.862,294.244Z" transform="translate(-627.956 -236.174)" fill="#4c3e42"/>
    <g id="Group_74" data-name="Group 74" transform="translate(144.625 53.193)" opacity="0.1">
      <path id="Path_2238" data-name="Path 2238" d="M920.309,378.352a1.219,1.219,0,0,0-.037-.212,3.262,3.262,0,0,0-.692,1.448,1.312,1.312,0,0,0,.031.372A2.8,2.8,0,0,0,920.309,378.352Z" transform="translate(-891.237 -368.417)"/>
      <path id="Path_2239" data-name="Path 2239" d="M797.977,341.433a29.778,29.778,0,0,1-4.158-2.541c-1.035-.63-2.142-1.13-3.135-1.829-1.025-.725-1.914-1.656-2.976-2.313a3.858,3.858,0,0,0-3.53-.528,14.368,14.368,0,0,0-2.223,1.76c-.767.555-1.943.771-2.531,0a2.8,2.8,0,0,1-.42-1.218,5.493,5.493,0,0,0-1.835-3.593c-1.2-.839-3.744-.744-4.2-2.506a2.737,2.737,0,0,1-.06-.964,3.852,3.852,0,0,0-.268,2.265c.463,1.77,3.005,1.675,4.2,2.506a5.5,5.5,0,0,1,1.837,3.6,2.824,2.824,0,0,0,.418,1.218c.578.76,1.766.546,2.533-.01a14.272,14.272,0,0,1,2.223-1.758,3.837,3.837,0,0,1,3.53.528c1.062.665,1.951,1.6,2.976,2.313.993.7,2.1,1.2,3.132,1.829a29.632,29.632,0,0,0,4.16,2.543,4.171,4.171,0,0,0,4.522-.578,5.541,5.541,0,0,1-.842-.557A4.8,4.8,0,0,1,797.977,341.433Z" transform="translate(-772.561 -327.7)"/>
    </g>
    <path id="Path_2240" data-name="Path 2240" d="M717.879,442.829l15.422-5.76a1.465,1.465,0,0,1,1.887.86h0a1.467,1.467,0,0,1-.862,1.887L718.9,445.578l-3.3-.332Z" transform="translate(-581.956 -362.718)" fill="#5c5c8e"/>
    <path id="Path_2241" data-name="Path 2241" d="M734.7,438.414h0a1.469,1.469,0,0,1-.862,1.889l-15.422,5.76-2.483-.249-.357.386,3.3.332,15.422-5.762a1.467,1.467,0,0,0,.862-1.887h0a1.461,1.461,0,0,0-.6-.733,1.6,1.6,0,0,1,.135.264Z" transform="translate(-581.939 -363.666)" fill="#fff" opacity="0.1"/>
    <path id="Path_2242" data-name="Path 2242" d="M695.579,415.58l1.027,2.749-2.712-.272L693.3,418l.812-.86Z" transform="translate(-559.656 -335.469)" fill="#efc8c4"/>
    <path id="Path_2243" data-name="Path 2243" d="M716.426,475.42a.588.588,0,0,1,.158.173.249.249,0,0,1,0,.268.6.6,0,0,1-.15.106.491.491,0,0,0-.22.372l-.594-.06Z" transform="translate(-581.972 -393.751)" fill="#727a9c"/>
    <path id="Path_2244" data-name="Path 2244" d="M645.961,289.9l-2.6-1.268a.314.314,0,0,1-.145-.42l.276-.567a.312.312,0,0,1,.42-.145l1.752.854,1.829-3.751a.316.316,0,0,1,.42-.147l.567.278a.312.312,0,0,1,.145.42l-2.244,4.6a.314.314,0,0,1-.42.145Z" transform="translate(-523.499 -239.578)" fill="#3acc6c"/>
    <path id="Path_2245" data-name="Path 2245" d="M675.431,374.058l-2.6-1.268a.314.314,0,0,1-.145-.42l.276-.567a.316.316,0,0,1,.422-.145l1.75.854,1.827-3.755a.316.316,0,0,1,.42-.147l.565.278a.314.314,0,0,1,.146.42l-2.244,4.6a.318.318,0,0,1-.422.145Z" transform="translate(-547.289 -307.506)" fill="#3acc6c"/>
    <path id="Path_2246" data-name="Path 2246" d="M662.2,332.564l-2.6-1.268a.316.316,0,0,1-.146-.42l.278-.567a.312.312,0,0,1,.42-.145l1.752.854,1.829-3.757a.314.314,0,0,1,.42-.145l.567.276a.318.318,0,0,1,.145.422l-2.246,4.605a.314.314,0,0,1-.42.145Z" transform="translate(-536.605 -274.01)" fill="#3acc6c"/>
    <path id="Path_2247" data-name="Path 2247" d="M688.231,412.074l-2.6-1.268a.314.314,0,0,1-.145-.42l.276-.567a.314.314,0,0,1,.42-.145l1.752.854,1.829-3.751a.318.318,0,0,1,.422-.146l.565.278a.312.312,0,0,1,.145.42l-2.242,4.6a.318.318,0,0,1-.422.145Z" transform="translate(-557.621 -338.197)" fill="#3acc6c"/>
    <path id="Path_2248" data-name="Path 2248" d="M182.3,693.36s1.147,1.5-.528,3.763-3.059,4.175-2.506,5.59c0,0,2.529-4.2,4.586-4.262S184.559,695.889,182.3,693.36Z" transform="translate(-148.907 -569.679)" fill="#3acc6c"/>
    <path id="Path_2249" data-name="Path 2249" d="M182.588,693.36a1.849,1.849,0,0,1,.235.47c2.007,2.359,3.084,4.561,1.147,4.627-1.8.05-3.956,3.265-4.47,4.077a1.482,1.482,0,0,0,.06.193s2.529-4.2,4.586-4.262S184.851,695.889,182.588,693.36Z" transform="translate(-149.199 -569.679)" opacity="0.1"/>
    <path id="Path_2250" data-name="Path 2250" d="M205.474,701.853c0,.526-.06.964-.133.964s-.131-.428-.131-.964.073-.279.147-.279S205.474,701.325,205.474,701.853Z" transform="translate(-169.953 -576.26)" fill="#ffd037"/>
    <path id="Path_2251" data-name="Path 2251" d="M206.582,704.995c-.463.253-.867.407-.9.341s.312-.32.771-.578.28-.069.314,0S207.047,704.742,206.582,704.995Z" transform="translate(-170.33 -578.773)" fill="#ffd037"/>
    <path id="Path_2252" data-name="Path 2252" d="M153.35,693.36s-1.145,1.5.53,3.763,3.057,4.175,2.506,5.59c0,0-2.527-4.2-4.586-4.262S151.087,695.889,153.35,693.36Z" transform="translate(-126.017 -569.679)" fill="#3acc6c"/>
    <path id="Path_2253" data-name="Path 2253" d="M153.307,693.36a1.889,1.889,0,0,0-.233.47c-2.009,2.359-3.084,4.561-1.147,4.626,1.8.05,3.954,3.265,4.47,4.077a1.486,1.486,0,0,1-.062.193s-2.527-4.222-4.59-4.279S151.044,695.889,153.307,693.36Z" transform="translate(-125.975 -569.679)" opacity="0.1"/>
    <path id="Path_2254" data-name="Path 2254" d="M153.05,701.853c0,.526.058.964.131.964s.133-.428.133-.964-.073-.279-.147-.279S153.05,701.325,153.05,701.853Z" transform="translate(-127.848 -576.26)" fill="#ffd037"/>
    <path id="Path_2255" data-name="Path 2255" d="M148.079,704.995c.465.253.867.407.9.341s-.312-.32-.771-.578-.281-.069-.316,0S147.616,704.742,148.079,704.995Z" transform="translate(-123.609 -578.773)" fill="#ffd037"/>
    <ellipse id="Ellipse_55" data-name="Ellipse 55" cx="11.988" cy="1.839" rx="11.988" ry="1.839" transform="translate(18.374 140.822)" fill="#006e90" opacity="0.1"/>
    <path id="Path_2256" data-name="Path 2256" d="M160.115,728.442l-.058.469-.079.661-.035.276-.079.661-.037.276-.079.661-.918,7.518c-.083.671-1.18,1.2-2.506,1.2h-4.763c-1.324,0-2.419-.524-2.506-1.2l-.918-7.518-.081-.661-.033-.276-.083-.661-.033-.276-.081-.661-.058-.469c-.044-.385.547-.7,1.3-.7h9.752C159.572,727.74,160.163,728.062,160.115,728.442Z" transform="translate(-123.584 -597.432)" fill="#65617d"/>
    <path id="Path_2257" data-name="Path 2257" d="M138.035,682.05l-.081.661H125.889l-.079-.661Z" transform="translate(-101.56 -550.571)" fill="#9d9cb5"/>
    <path id="Path_2258" data-name="Path 2258" d="M138.4,686.91l-.081.661H126.481l-.081-.661Z" transform="translate(-102.036 -554.495)" fill="#9d9cb5"/>
    <path id="Path_2259" data-name="Path 2259" d="M138.759,691.77l-.081.661H127.071l-.081-.661Z" transform="translate(-102.513 -558.418)" fill="#9d9cb5"/>
  </g>
</svg>
