<svg xmlns="http://www.w3.org/2000/svg" width="274" height="151.981" viewBox="0 0 274 151.981">
  <g id="undraw_navigator_a479" transform="translate(0 0.005)">
    <circle id="Ellipse_40" data-name="Ellipse 40" cx="15.692" cy="15.692" r="15.692" transform="translate(56.149 16.221)" fill="#f58a07"/>
    <path id="Path_2075" data-name="Path 2075" d="M375.719,319.977H298.737a1.575,1.575,0,0,1-.288-.023l36.409-63.066a2.549,2.549,0,0,1,4.438,0l24.435,42.322,1.171,2.025Z" transform="translate(-254.669 -239.706)" fill="#3f3d56"/>
    <path id="Path_2076" data-name="Path 2076" d="M332.842,213.268H306.558l12.9-18.741.929-1.35.464-.675,1.171,2.025Z" transform="translate(-211.791 -132.997)" opacity="0.2"/>
    <path id="Path_2077" data-name="Path 2077" d="M538.258,361.516H471.675l12.9-18.741.929-1.35L502.319,317a3.4,3.4,0,0,1,5.05-.3,3.033,3.033,0,0,1,.242.3Z" transform="translate(-374.344 -281.245)" fill="#3f3d56"/>
    <circle id="Ellipse_41" data-name="Ellipse 41" cx="4.729" cy="4.729" r="4.729" transform="translate(178.73 60.439)" fill="#16b68f"/>
    <path id="Path_2078" data-name="Path 2078" d="M592.773,223.471H591.8l.441-14.955Z" transform="translate(-408.859 -144.061)" fill="#3f3d56"/>
    <path id="Path_2079" data-name="Path 2079" d="M593.223,214.47l1.04-1.439-1.054,1.795-.114-.2Z" transform="translate(-409.75 -147.18)" fill="#3f3d56"/>
    <path id="Path_2080" data-name="Path 2080" d="M590.817,219.169l-1.04-1.438,1.054,1.795.114-.2Z" transform="translate(-407.458 -150.427)" fill="#3f3d56"/>
    <circle id="Ellipse_42" data-name="Ellipse 42" cx="4.729" cy="4.729" r="4.729" transform="translate(222.107 60.439)" fill="#16b68f"/>
    <path id="Path_2081" data-name="Path 2081" d="M733.089,223.471h-.969l.442-14.955Z" transform="translate(-505.799 -144.061)" fill="#16b68f"/>
    <path id="Path_2082" data-name="Path 2082" d="M733.539,214.47l1.04-1.439-1.054,1.795-.114-.2Z" transform="translate(-506.69 -147.18)" fill="#3f3d56"/>
    <path id="Path_2083" data-name="Path 2083" d="M731.134,219.169l-1.04-1.438,1.054,1.795.114-.2Z" transform="translate(-504.398 -150.427)" fill="#3f3d56"/>
    <circle id="Ellipse_43" data-name="Ellipse 43" cx="6.984" cy="6.984" r="6.984" transform="translate(190.173 51.391)" fill="#16b68f"/>
    <path id="Path_2084" data-name="Path 2084" d="M636.755,207.532h-1.43l.652-22.088Z" transform="translate(-438.925 -128.121)" fill="#3f3d56"/>
    <path id="Path_2085" data-name="Path 2085" d="M637.419,194.237l1.535-2.124-1.556,2.65-.169-.295Z" transform="translate(-440.242 -132.728)" fill="#3f3d56"/>
    <path id="Path_2086" data-name="Path 2086" d="M633.866,201.178l-1.535-2.124,1.557,2.65.168-.294Z" transform="translate(-436.857 -137.524)" fill="#3f3d56"/>
    <circle id="Ellipse_44" data-name="Ellipse 44" cx="6.984" cy="6.984" r="6.984" transform="translate(207.204 51.391)" fill="#16b68f"/>
    <path id="Path_2087" data-name="Path 2087" d="M691.849,207.532h-1.43l.652-22.088Z" transform="translate(-476.988 -128.121)" fill="#3f3d56"/>
    <path id="Path_2088" data-name="Path 2088" d="M692.513,194.237l1.536-2.124-1.557,2.65-.168-.295Z" transform="translate(-478.304 -132.728)" fill="#3f3d56"/>
    <path id="Path_2089" data-name="Path 2089" d="M688.96,201.178l-1.536-2.124,1.557,2.65.168-.294Z" transform="translate(-474.919 -137.524)" fill="#3f3d56"/>
    <circle id="Ellipse_45" data-name="Ellipse 45" cx="6.984" cy="6.984" r="6.984" transform="translate(163.029 51.391)" fill="#16b68f"/>
    <path id="Path_2090" data-name="Path 2090" d="M548.949,207.532h-1.43l.652-22.088Z" transform="translate(-378.263 -128.121)" fill="#3f3d56"/>
    <path id="Path_2091" data-name="Path 2091" d="M549.614,194.237l1.536-2.124-1.557,2.65-.168-.295Z" transform="translate(-379.58 -132.728)" fill="#3f3d56"/>
    <path id="Path_2092" data-name="Path 2092" d="M546.061,201.178l-1.536-2.124,1.557,2.65.168-.294Z" transform="translate(-376.195 -137.524)" fill="#3f3d56"/>
    <path id="Path_2093" data-name="Path 2093" d="M415.853,530.417H187.94a21.866,21.866,0,1,1,0-43.732H415.348a8.41,8.41,0,0,0,0-16.82H180.371V456.409H415.348a21.866,21.866,0,0,1,0,43.732H187.94a8.41,8.41,0,0,0,0,16.82H415.853Z" transform="translate(-163.215 -378.442)" fill="#e6e6e6"/>
    <rect id="Rectangle_399" data-name="Rectangle 399" width="10.428" height="0.673" transform="translate(25.567 84.358)" fill="#fff"/>
    <rect id="Rectangle_400" data-name="Rectangle 400" width="10.428" height="0.673" transform="translate(55.17 84.358)" fill="#fff"/>
    <rect id="Rectangle_401" data-name="Rectangle 401" width="10.428" height="0.673" transform="translate(84.773 84.358)" fill="#fff"/>
    <rect id="Rectangle_402" data-name="Rectangle 402" width="10.428" height="0.673" transform="translate(114.377 84.358)" fill="#fff"/>
    <rect id="Rectangle_403" data-name="Rectangle 403" width="10.428" height="0.673" transform="translate(143.98 84.358)" fill="#fff"/>
    <rect id="Rectangle_404" data-name="Rectangle 404" width="10.428" height="0.673" transform="translate(173.584 84.358)" fill="#fff"/>
    <rect id="Rectangle_405" data-name="Rectangle 405" width="10.428" height="0.673" transform="translate(203.187 84.358)" fill="#fff"/>
    <rect id="Rectangle_406" data-name="Rectangle 406" width="10.428" height="0.673" transform="translate(232.791 84.358)" fill="#fff"/>
    <rect id="Rectangle_407" data-name="Rectangle 407" width="10.428" height="0.673" transform="translate(25.567 114.635)" fill="#fff"/>
    <rect id="Rectangle_408" data-name="Rectangle 408" width="10.428" height="0.673" transform="translate(55.17 114.635)" fill="#fff"/>
    <rect id="Rectangle_409" data-name="Rectangle 409" width="10.428" height="0.673" transform="translate(84.773 114.635)" fill="#fff"/>
    <rect id="Rectangle_410" data-name="Rectangle 410" width="10.428" height="0.673" transform="translate(114.377 114.635)" fill="#fff"/>
    <rect id="Rectangle_411" data-name="Rectangle 411" width="10.428" height="0.673" transform="translate(143.98 114.635)" fill="#fff"/>
    <rect id="Rectangle_412" data-name="Rectangle 412" width="10.428" height="0.673" transform="translate(173.584 114.635)" fill="#fff"/>
    <rect id="Rectangle_413" data-name="Rectangle 413" width="10.428" height="0.673" transform="translate(203.187 114.635)" fill="#fff"/>
    <rect id="Rectangle_414" data-name="Rectangle 414" width="10.428" height="0.673" transform="translate(232.791 114.635)" fill="#fff"/>
    <rect id="Rectangle_415" data-name="Rectangle 415" width="10.428" height="0.673" transform="translate(25.567 144.911)" fill="#fff"/>
    <rect id="Rectangle_416" data-name="Rectangle 416" width="10.428" height="0.673" transform="translate(55.17 144.911)" fill="#fff"/>
    <rect id="Rectangle_417" data-name="Rectangle 417" width="10.428" height="0.673" transform="translate(84.773 144.911)" fill="#fff"/>
    <rect id="Rectangle_418" data-name="Rectangle 418" width="10.428" height="0.673" transform="translate(114.377 144.911)" fill="#fff"/>
    <rect id="Rectangle_419" data-name="Rectangle 419" width="10.428" height="0.673" transform="translate(143.98 144.911)" fill="#fff"/>
    <rect id="Rectangle_420" data-name="Rectangle 420" width="10.428" height="0.673" transform="translate(173.584 144.911)" fill="#fff"/>
    <rect id="Rectangle_421" data-name="Rectangle 421" width="10.428" height="0.673" transform="translate(203.187 144.911)" fill="#fff"/>
    <rect id="Rectangle_422" data-name="Rectangle 422" width="10.428" height="0.673" transform="translate(232.791 144.911)" fill="#fff"/>
    <path id="Path_2094" data-name="Path 2094" d="M727.834,294.939a8.962,8.962,0,0,0-1.869-1.763h3.9a6.529,6.529,0,0,0-2.034,1.763Z" transform="translate(-550.025 -265.669)" fill="none"/>
    <path id="Path_2095" data-name="Path 2095" d="M690.743,293.176h.673c-.145.1-.289.2-.428.312C690.909,293.382,690.825,293.28,690.743,293.176Z" transform="translate(-525.691 -265.67)" fill="none"/>
    <path id="Path_2096" data-name="Path 2096" d="M741.712,290.559a6.44,6.44,0,0,1,3.131.809h-6.254A6.412,6.412,0,0,1,741.712,290.559Z" transform="translate(-558.747 -263.862)" fill="#e6e6e6"/>
    <path id="Path_2097" data-name="Path 2097" d="M698.023,287.941a8.848,8.848,0,0,1,5.111,1.618H692.919A8.846,8.846,0,0,1,698.023,287.941Z" transform="translate(-527.195 -262.053)" fill="#e6e6e6"/>
    <path id="Path_2098" data-name="Path 2098" d="M486.994,219.83a16.587,16.587,0,0,1,32.544-3.5c.2-.007.4-.015.6-.015a16.59,16.59,0,0,1,15.914,11.911,11.722,11.722,0,0,1,13.91,3.463h-51.74a11.219,11.219,0,0,1-11.244-11.616Q486.987,219.952,486.994,219.83Z" transform="translate(-384.915 -204.184)" fill="#e6e6e6"/>
    <path id="Path_2099" data-name="Path 2099" d="M773.042,334.115a8.962,8.962,0,0,1,1.869-1.763h-3.9A6.527,6.527,0,0,1,773.042,334.115Z" transform="translate(-581.144 -292.735)" fill="none"/>
    <path id="Path_2100" data-name="Path 2100" d="M817.351,332.352h-.673c.145.1.289.2.428.312C817.184,332.558,817.268,332.456,817.351,332.352Z" transform="translate(-612.696 -292.735)" fill="none"/>
    <path id="Path_2101" data-name="Path 2101" d="M753.907,329.734a6.44,6.44,0,0,0-3.131.809h6.254A6.412,6.412,0,0,0,753.907,329.734Z" transform="translate(-567.166 -290.926)" fill="#e6e6e6"/>
    <path id="Path_2102" data-name="Path 2102" d="M788.743,327.117a8.848,8.848,0,0,0-5.111,1.618h10.216A8.846,8.846,0,0,0,788.743,327.117Z" transform="translate(-589.865 -289.118)" fill="#e6e6e6"/>
    <path id="Path_2103" data-name="Path 2103" d="M881.826,259.006a16.587,16.587,0,0,0-32.544-3.5c-.2-.007-.4-.015-.6-.015a16.59,16.59,0,0,0-15.914,11.91,11.722,11.722,0,0,0-13.91,3.463h51.74a11.219,11.219,0,0,0,11.244-11.616Q881.832,259.128,881.826,259.006Z" transform="translate(-614.199 -231.25)" fill="#e6e6e6"/>
    <rect id="Rectangle_423" data-name="Rectangle 423" width="6.013" height="0.955" transform="matrix(-1, -0.001, 0.001, -1, 239.145, 142.577)" fill="#3f3d56"/>
    <path id="Path_2104" data-name="Path 2104" d="M770.332,610.8l1.241.287,47.153.025.424-.988a9.971,9.971,0,0,0,.733-5.392,4.2,4.2,0,0,0-1.868-3.309l-2.093-13.937-26.087-.047-10.093,8.141s-4.761-.086-7.348,3.135a7.558,7.558,0,0,0-1.581,4.163l-.1,1.675Z" transform="translate(-580.677 -468.966)" fill="#16b68f"/>
    <circle id="Ellipse_46" data-name="Ellipse 46" cx="5.823" cy="5.823" r="5.823" transform="translate(194.189 135.777)" fill="#3f3d56"/>
    <circle id="Ellipse_47" data-name="Ellipse 47" cx="3.064" cy="3.064" r="3.064" transform="translate(196.947 138.535)" fill="#ccc"/>
    <circle id="Ellipse_48" data-name="Ellipse 48" cx="5.823" cy="5.823" r="5.823" transform="translate(222.92 135.792)" fill="#3f3d56"/>
    <circle id="Ellipse_49" data-name="Ellipse 49" cx="3.064" cy="3.064" r="3.064" transform="translate(225.678 138.551)" fill="#ccc"/>
    <path id="Path_2105" data-name="Path 2105" d="M656.92,393.931l14.085.006h1.719l2.9,0v-.212l0-2.553,0-2.866H673.7l-1.719,0-3.046,0h-1.719l-3.516,0Z" transform="translate(-453.845 -268.269)" fill="#fff"/>
    <path id="Path_2106" data-name="Path 2106" d="M724.849,393.96l7.444,0,0-1.461V389.95l0-1.617h-1.09l-1.719,0-4.636,0Z" transform="translate(-500.775 -268.288)" fill="#fff"/>
    <rect id="Rectangle_424" data-name="Rectangle 424" width="0.955" height="1.814" transform="matrix(-1, -0.001, 0.001, -1, 221.779, 131.686)" fill="#3f3d56"/>
    <rect id="Rectangle_425" data-name="Rectangle 425" width="0.955" height="1.814" transform="matrix(-0.001, 1, -1, -0.001, 206.893, 127.287)" fill="#3f3d56"/>
    <path id="Path_2107" data-name="Path 2107" d="M0,0h.1A2,2,0,0,1,2.1,1.995h0A2,2,0,0,1,.105,3.99H0Z" transform="matrix(-1, -0.001, 0.001, -1, 206.223, 127.706)" fill="#3f3d56"/>
    <path id="Path_2108" data-name="Path 2108" d="M771.559,629.75a3.083,3.083,0,0,0,1.683-5.838,7.559,7.559,0,0,0-1.581,4.163Z" transform="translate(-581.525 -494.165)" fill="#3f3d56"/>
    <path id="Path_2109" data-name="Path 2109" d="M705.639,388.316l3.647,5.421,0-2.553-1.929-2.866Z" transform="translate(-487.503 -268.279)" fill="#f2f2f2"/>
    <path id="Path_2110" data-name="Path 2110" d="M739.854,388.335l2.807,4.172v-2.553l-1.088-1.617Z" transform="translate(-511.141 -268.292)" fill="#f2f2f2"/>
    <path id="Path_2111" data-name="Path 2111" d="M690.225,388.309l3.789,5.633h1.719l-3.789-5.633Z" transform="translate(-476.854 -268.274)" fill="#f2f2f2"/>
    <circle id="Ellipse_50" data-name="Ellipse 50" cx="15.475" cy="15.475" r="15.475" transform="translate(0 65.184)" fill="#3f3d56"/>
    <path id="Path_2112" data-name="Path 2112" d="M188.9,423.912l-7.744-7.744a1.346,1.346,0,1,1,1.9-1.9l5.712,5.712L207,399.191a1.346,1.346,0,0,1,2.023,1.774Z" transform="translate(-173.364 -338.595)" fill="#16b68f"/>
  </g>
</svg>
