<svg xmlns="http://www.w3.org/2000/svg" width="131.588" height="114.581" viewBox="0 0 131.588 114.581">
  <g id="undraw_voice_assistant_nrv7" transform="translate(0 0)">
    <path id="Path_2270" data-name="Path 2270" d="M410.587,119.857h-.627V102.669a9.948,9.948,0,0,0-9.948-9.948H363.6a9.948,9.948,0,0,0-9.948,9.948v94.293a9.948,9.948,0,0,0,9.948,9.948h36.414a9.948,9.948,0,0,0,9.948-9.948V132.091h.627Z" transform="translate(-327.359 -92.721)" fill="#3f3d56"/>
    <rect id="Rectangle_448" data-name="Rectangle 448" width="115.133" height="0.321" transform="translate(0.039 109.5)" fill="#3f3d56"/>
    <path id="Path_2271" data-name="Path 2271" d="M414.787,108.861h-4.753a3.529,3.529,0,0,1-3.268,4.862H385.9a3.529,3.529,0,0,1-3.268-4.862H378.2a7.429,7.429,0,0,0-7.429,7.429v94.155a7.429,7.429,0,0,0,7.429,7.429h36.59a7.429,7.429,0,0,0,7.429-7.429V116.29a7.429,7.429,0,0,0-7.429-7.429Z" transform="translate(-341.732 -106.273)" opacity="0.2"/>
    <path id="Path_2272" data-name="Path 2272" d="M225.4,713.518l-.172-.065a10.038,10.038,0,0,1-6.456-11.973l.041-.179.172.065a10.038,10.038,0,0,1,6.456,11.973Zm-5.455-4.943a11.247,11.247,0,0,0,5.219,4.505,9.681,9.681,0,0,0-6.115-11.341A11.26,11.26,0,0,0,219.947,708.575Z" transform="translate(-213.927 -603.714)" fill="#3f3d56"/>
    <path id="Path_2273" data-name="Path 2273" d="M196.778,733.469a11.473,11.473,0,0,1,4.389,5.693,9.878,9.878,0,0,1-11.475-6.9A11.474,11.474,0,0,1,196.778,733.469Z" transform="translate(-189.693 -629.603)" fill="#006e90"/>
    <rect id="Rectangle_449" data-name="Rectangle 449" width="7.049" height="1.697" transform="translate(38.271 36.863)" fill="#006e90"/>
    <rect id="Rectangle_450" data-name="Rectangle 450" width="2.48" height="1.697" transform="translate(67.251 36.863)" fill="#006e90"/>
    <rect id="Rectangle_451" data-name="Rectangle 451" width="2.48" height="1.697" transform="translate(72.212 36.863)" fill="#006e90"/>
    <rect id="Rectangle_452" data-name="Rectangle 452" width="16.84" height="1.697" transform="translate(47.801 36.863)" fill="#006e90"/>
    <rect id="Rectangle_453" data-name="Rectangle 453" width="2.48" height="1.697" transform="translate(58.375 47.829)" fill="#006e90"/>
    <rect id="Rectangle_454" data-name="Rectangle 454" width="2.48" height="1.697" transform="translate(63.335 47.829)" fill="#006e90"/>
    <rect id="Rectangle_455" data-name="Rectangle 455" width="16.84" height="1.697" transform="translate(38.924 47.829)" fill="#006e90"/>
    <rect id="Rectangle_456" data-name="Rectangle 456" width="7.049" height="1.697" transform="translate(58.505 40.649)" fill="#006e90"/>
    <rect id="Rectangle_457" data-name="Rectangle 457" width="7.049" height="1.697" transform="translate(68.035 40.649)" fill="#006e90"/>
    <rect id="Rectangle_458" data-name="Rectangle 458" width="2.48" height="1.697" transform="translate(34.355 40.649)" fill="#006e90"/>
    <rect id="Rectangle_459" data-name="Rectangle 459" width="16.84" height="1.697" transform="translate(39.315 40.649)" fill="#006e90"/>
    <rect id="Rectangle_460" data-name="Rectangle 460" width="7.049" height="1.697" transform="translate(50.934 46.001) rotate(180)" fill="#006e90"/>
    <rect id="Rectangle_461" data-name="Rectangle 461" width="7.049" height="1.697" transform="translate(41.404 46.001) rotate(180)" fill="#006e90"/>
    <rect id="Rectangle_462" data-name="Rectangle 462" width="2.48" height="1.697" transform="translate(75.084 46.001) rotate(180)" fill="#006e90"/>
    <rect id="Rectangle_463" data-name="Rectangle 463" width="16.84" height="1.697" transform="translate(70.123 46.001) rotate(180)" fill="#006e90"/>
    <circle id="Ellipse_69" data-name="Ellipse 69" cx="6.414" cy="6.414" r="6.414" transform="translate(48.345 66.365)" fill="#006e90"/>
    <path id="Path_2274" data-name="Path 2274" d="M713.9,292.908a7.23,7.23,0,0,0-5.543-3.291s-3.588-.459-5.89,4.331c-2.145,4.464-5.106,8.775-.477,9.82l.836-2.6.518,2.8a18.116,18.116,0,0,0,1.981.034c4.958-.16,9.68.047,9.528-1.732C714.655,299.9,715.7,295.934,713.9,292.908Z" transform="translate(-617.787 -258.034)" fill="#2f2e41"/>
    <path id="Path_2275" data-name="Path 2275" d="M747.307,340.421s2.405,3.367.962,6.093,3.367,5.612,3.367,5.612l3.528-7.7s-4.169-2.726-3.047-5.292Z" transform="translate(-657.892 -299.624)" fill="#fbbebe"/>
    <circle id="Ellipse_70" data-name="Ellipse 70" cx="4.169" cy="4.169" r="4.169" transform="translate(86.849 33.901)" fill="#fbbebe"/>
    <path id="Path_2276" data-name="Path 2276" d="M667.328,313.187l3.484-4.5s1.227-4.712,3-4.473-.7,5.651-.7,5.651l-3.462,4.976Z" transform="translate(-590.738 -270.297)" fill="#fbbebe"/>
    <path id="Path_2277" data-name="Path 2277" d="M587.615,637.9l1.122,5.933,2.405.641-.641-7.055Z" transform="translate(-493.39 -535.206)" fill="#fbbebe"/>
    <path id="Path_2278" data-name="Path 2278" d="M738.615,593.7l4.33,5.933,1.764.8,1.443-2.405-4.33-5.612Z" transform="translate(-620.176 -497.421)" fill="#fbbebe"/>
    <path id="Path_2279" data-name="Path 2279" d="M727.21,370.552l-2.675-3.521s-5.182.956-5.664,1.437,1.283,9.3,1.283,9.3a6.823,6.823,0,0,0,1.764,3.688l1.443.962,11.866-2.405.446-5.28a13.856,13.856,0,0,0-3.653-10.6h0l-2.065.282Z" transform="translate(-633.947 -320.616)" fill="#006e90"/>
    <path id="Path_2280" data-name="Path 2280" d="M662.008,356.194l-.8-.321-3.688-.321s-1.283-.321-.962-.962.641-.8,0-.962-.8-.321-.641-.8a6.382,6.382,0,0,1,1.122-1.443l-2.726-2.245s-.148.1-.386.3c-1.353,1.1-5.636,5.049-2.5,9,3.688,4.65,8.018,7.376,11.545,6.414Z" transform="translate(-576.442 -308.021)" fill="#006e90"/>
    <path id="Path_2281" data-name="Path 2281" d="M739.755,464.742v2.245a9.367,9.367,0,0,0-.962,5.292c.481,2.566.641,3.848.641,3.848a21.893,21.893,0,0,0,1.122,6.414c1.122,3.207-2.566,24.213,2.085,24.534s7.216.641,8.659-.962-2.405-29.184-2.405-29.184,13.149,27.42,15.875,26.3,9.621-3.688,8.819-5.131-21.006-33.514-21.006-33.514l-.641-1.443Z" transform="translate(-650.661 -403.741)" fill="#2f2e41"/>
    <path id="Path_2282" data-name="Path 2282" d="M772.23,763.07s-2.566-.16-2.566.641a16.807,16.807,0,0,1-1.283,3.528s-.962,3.207,1.6,2.886,4.169-3.207,4.169-3.207l-.641-3.047Z" transform="translate(-675.439 -655.566)" fill="#2f2e41"/>
    <path id="Path_2283" data-name="Path 2283" d="M949.349,719.7s-2.245-1.443-2.085-.481.321,3.528,1.443,3.688,4.49,1.122,4.65,1.443,4.009,1.6,4.009-.481-2.405-3.688-2.405-3.688l-2.726-2.085s-1.764-.16-2.085.962S949.349,719.7,949.349,719.7Z" transform="translate(-825.779 -617.809)" fill="#2f2e41"/>
    <circle id="Ellipse_71" data-name="Ellipse 71" cx="2.662" cy="2.662" r="2.662" transform="translate(88.362 28.936)" fill="#2f2e41"/>
    <path id="Path_2284" data-name="Path 2284" d="M736.049,271.467a2.663,2.663,0,0,1,2.382-2.647,2.662,2.662,0,1,0,0,5.295A2.663,2.663,0,0,1,736.049,271.467Z" transform="translate(-647.968 -240.569)" fill="#2f2e41"/>
    <path id="Path_2285" data-name="Path 2285" d="M543.486,205.615l-3.638-1.906-5.024.78-1.039,4.591,2.587-.1.723-1.687v1.659l1.194-.046.693-2.685.433,2.858,4.244-.087Z" transform="translate(-448.191 -171.044)" fill="#2f2e41"/>
    <path id="Path_2286" data-name="Path 2286" d="M729.523,460.347l-5.61.152s-4.787.931-4.519-1,4.939-1.256,4.939-1.256l5.112-.78Z" transform="translate(-634.446 -398.974)" fill="#fbbebe"/>
    <path id="Path_2287" data-name="Path 2287" d="M779.116,362.372a1.2,1.2,0,0,1,1.321.822c1.1,3.461,4.482,15.043,1.12,16.632a16.566,16.566,0,0,1-6.849,1.789l-1.547-3.808,1.408-1.321,1.5-9.665.72-4.1Z" transform="translate(-679.6 -319.121)" fill="#006e90"/>
    <path id="Path_2288" data-name="Path 2288" d="M581.369,309.917l-.641,6.414-5.612,2.405,6.254-1.443Z" transform="translate(-482.894 -260.221)" opacity="0.4"/>
  </g>
</svg>
